<svg width="659" height="118" viewBox="0 0 659 118" fill="none" xmlns="http://www.w3.org/2000/svg">
<g clip-path="url(#clip0)">
<path d="M150.1 78.8C147.3 77.3 145.1 75.3 143.5 72.6C142 70 141.2 66.9 141.2 63.5V46.9C141.2 43.4 142 40.4 143.5 37.8C145 35.2 147.2 33.1 150.1 31.7C152.9 30.3 156.2 29.5 160 29.5C163.7 29.5 166.9 30.2 169.8 31.6C172.6 33 174.8 34.9 176.4 37.4C178 39.9 178.7 42.8 178.7 46.1C178.7 46.5 178.4 46.8 177.8 46.9L169.4 47.4H169.3C168.8 47.4 168.6 47.1 168.6 46.6C168.6 44.1 167.8 42 166.3 40.5C164.7 39 162.7 38.2 160.1 38.2C157.5 38.2 155.4 39 153.9 40.5C152.3 42 151.6 44.1 151.6 46.6V64C151.6 66.5 152.4 68.5 153.9 70C155.5 71.5 157.5 72.3 160.1 72.3C162.6 72.3 164.7 71.5 166.3 70C167.9 68.5 168.6 66.4 168.6 64C168.6 63.5 168.9 63.2 169.5 63.2L177.9 63.6C178.1 63.6 178.3 63.7 178.5 63.8C178.7 63.9 178.8 64.1 178.8 64.3C178.8 67.6 178 70.5 176.5 73.1C174.9 75.6 172.8 77.6 169.9 79C167.1 80.4 163.8 81.1 160.1 81.1C156.2 81 152.9 80.3 150.1 78.8Z" fill="#243947"/>
<path d="M218.4 64.2C218.4 64.8 218 65.1 217.5 65.1H195.3C195 65.1 194.9 65.2 195 65.5C195.1 66.5 195.4 67.4 195.8 68.4C197 71.1 199.6 72.4 203.4 72.4C206.5 72.4 208.9 71.1 210.7 68.7C210.9 68.4 211.1 68.3 211.3 68.3C211.4 68.3 211.6 68.4 211.8 68.6L217 73.7C217.2 73.9 217.4 74.2 217.4 74.3C217.4 74.4 217.3 74.6 217.1 74.9C215.5 76.9 213.5 78.4 211 79.5C208.5 80.6 205.8 81.1 202.8 81.1C198.7 81.1 195.2 80.2 192.3 78.3C189.4 76.4 187.4 73.8 186.1 70.5C185.1 68.1 184.6 65 184.6 61.1C184.6 58.5 185 56.1 185.7 54.1C186.8 50.7 188.7 48 191.5 46C194.3 44 197.5 43 201.3 43C206.1 43 210 44.4 212.9 47.2C215.8 50 217.6 53.7 218.2 58.4C218.4 59.9 218.5 62 218.4 64.2ZM195.3 55.8C195.1 56.4 194.9 57.2 194.8 58.1C194.8 58.3 194.9 58.5 195.2 58.5H207.7C208 58.5 208.1 58.4 208 58.1C207.8 56.7 207.6 56 207.6 56.1C207.2 54.7 206.4 53.5 205.3 52.8C204.2 52.1 202.9 51.6 201.3 51.6C198.3 51.6 196.3 53 195.3 55.8Z" fill="#243947"/>
<path d="M253.2 46.4C255.6 48.8 256.7 51.9 256.7 56V79.6C256.7 79.8 256.6 80 256.4 80.2C256.2 80.4 256 80.5 255.8 80.5H247.4C247.2 80.5 247 80.4 246.8 80.2C246.6 80 246.5 79.8 246.5 79.6V58C246.5 56.1 246 54.5 244.9 53.3C243.8 52.1 242.4 51.5 240.6 51.5C238.8 51.5 237.4 52.1 236.3 53.3C235.2 54.5 234.7 56.1 234.7 58V79.5C234.7 79.7 234.6 79.9 234.4 80.1C234.2 80.3 234 80.4 233.8 80.4H225.4C225.2 80.4 225 80.3 224.8 80.1C224.6 79.9 224.5 79.7 224.5 79.5V44.3C224.5 44.1 224.6 43.9 224.8 43.7C225 43.5 225.2 43.4 225.4 43.4H233.8C234 43.4 234.2 43.5 234.4 43.7C234.6 43.9 234.7 44.1 234.7 44.3V46.8C234.7 46.9 234.7 47 234.8 47.1C234.9 47.1 235 47.1 235 47C237 44.2 239.9 42.8 243.8 42.8C247.8 42.9 250.9 44 253.2 46.4Z" fill="#243947"/>
<path d="M270.3 79.6C267.9 78.7 266 77.4 264.7 75.8C263.4 74.2 262.7 72.3 262.7 70.3V69.6C262.7 69.4 262.8 69.2 263 69C263.2 68.8 263.4 68.7 263.6 68.7H271.6C271.8 68.7 272 68.8 272.2 69C272.4 69.2 272.5 69.4 272.5 69.6V69.7C272.5 70.8 273.1 71.7 274.3 72.4C275.5 73.1 277 73.5 278.7 73.5C280.3 73.5 281.7 73.2 282.7 72.5C283.7 71.9 284.2 71 284.2 70.1C284.2 69.2 283.8 68.6 282.9 68.2C282 67.8 280.6 67.3 278.7 66.8C276.4 66.2 274.7 65.7 273.4 65.1C270.3 64 267.9 62.7 266.1 61.2C264.3 59.7 263.4 57.5 263.4 54.6C263.4 51 264.8 48.2 267.5 46.1C270.3 44 273.9 43 278.5 43C281.6 43 284.3 43.5 286.6 44.5C288.9 45.5 290.7 46.9 292 48.6C293.3 50.4 293.9 52.4 293.9 54.6C293.9 54.8 293.8 55 293.6 55.2C293.4 55.4 293.2 55.5 293 55.5H285.3C285.1 55.5 284.9 55.4 284.7 55.2C284.5 55 284.4 54.8 284.4 54.6C284.4 53.5 283.9 52.7 282.8 51.9C281.7 51.2 280.3 50.8 278.5 50.8C276.9 50.8 275.6 51.1 274.6 51.7C273.6 52.3 273.1 53.1 273.1 54.1C273.1 55.1 273.6 55.8 274.6 56.3C275.6 56.8 277.2 57.3 279.5 57.8C280 57.9 280.6 58.1 281.3 58.3C282 58.5 282.7 58.7 283.5 58.9C286.9 59.9 289.6 61.2 291.6 62.8C293.6 64.4 294.6 66.7 294.6 69.7C294.6 73.3 293.2 76 290.4 78C287.6 80 283.8 81 279.1 81C275.6 80.9 272.7 80.5 270.3 79.6Z" fill="#243947"/>
<path d="M306.1 77.8C303.2 75.7 301.3 72.8 300.2 69.2C299.5 66.9 299.2 64.5 299.2 61.9C299.2 59.1 299.5 56.5 300.2 54.3C301.3 50.7 303.3 48 306.2 45.9C309.1 43.9 312.5 42.9 316.6 42.9C320.5 42.9 323.9 43.9 326.7 45.9C329.5 47.9 331.5 50.7 332.6 54.2C333.4 56.6 333.8 59.1 333.8 61.8C333.8 64.4 333.5 66.8 332.8 69.1C331.7 72.8 329.8 75.8 326.9 77.9C324 80 320.6 81.1 316.6 81.1C312.6 81.1 309 80 306.1 77.8ZM320.5 70.9C321.6 69.9 322.4 68.6 322.9 66.9C323.3 65.4 323.5 63.7 323.5 61.9C323.5 59.9 323.3 58.2 322.9 56.8C322.4 55.2 321.6 53.9 320.5 53C319.4 52.1 318.1 51.6 316.5 51.6C314.9 51.6 313.5 52.1 312.4 53C311.3 53.9 310.5 55.2 310.1 56.8C309.7 58 309.5 59.7 309.5 61.9C309.5 64.1 309.7 65.7 310 66.9C310.5 68.6 311.3 69.9 312.4 70.9C313.5 71.9 314.9 72.3 316.5 72.3C318.1 72.3 319.4 71.8 320.5 70.9Z" fill="#243947"/>
<path d="M362.8 43.9C363.2 44.1 363.3 44.5 363.2 45L361.7 53.2C361.7 53.8 361.3 53.9 360.7 53.7C360 53.5 359.1 53.3 358.2 53.3C357.8 53.3 357.3 53.3 356.6 53.4C354.9 53.5 353.4 54.2 352.2 55.3C351 56.4 350.4 57.9 350.4 59.8V79.5C350.4 79.7 350.3 79.9 350.1 80.1C349.9 80.3 349.7 80.4 349.5 80.4H341.1C340.9 80.4 340.7 80.3 340.5 80.1C340.3 79.9 340.2 79.7 340.2 79.5V44.3C340.2 44.1 340.3 43.9 340.5 43.7C340.7 43.5 340.9 43.4 341.1 43.4H349.5C349.7 43.4 349.9 43.5 350.1 43.7C350.3 43.9 350.4 44.1 350.4 44.3V47C350.4 47.1 350.4 47.2 350.5 47.3C350.6 47.3 350.7 47.3 350.7 47.2C352.7 44.3 355.3 42.9 358.6 42.9C360.4 42.9 361.8 43.3 362.8 43.9Z" fill="#243947"/>
<path d="M400 64.2C400 64.8 399.6 65.1 399.1 65.1H376.9C376.6 65.1 376.5 65.2 376.6 65.5C376.7 66.5 377 67.4 377.4 68.4C378.6 71.1 381.2 72.4 385 72.4C388.1 72.4 390.5 71.1 392.3 68.7C392.5 68.4 392.7 68.3 392.9 68.3C393 68.3 393.2 68.4 393.4 68.6L398.6 73.7C398.8 73.9 399 74.2 399 74.3C399 74.4 398.9 74.6 398.7 74.9C397.1 76.9 395.1 78.4 392.6 79.5C390.1 80.6 387.4 81.1 384.4 81.1C380.3 81.1 376.8 80.2 373.9 78.3C371 76.4 369 73.8 367.7 70.5C366.7 68.1 366.2 65 366.2 61.1C366.2 58.5 366.6 56.1 367.3 54.1C368.4 50.7 370.3 48 373.1 46C375.9 44 379.1 43 382.9 43C387.7 43 391.6 44.4 394.5 47.2C397.4 50 399.2 53.7 399.8 58.4C400 59.9 400 62 400 64.2ZM376.9 55.8C376.7 56.4 376.5 57.2 376.4 58.1C376.4 58.3 376.5 58.5 376.8 58.5H389.3C389.6 58.5 389.7 58.4 389.6 58.1C389.4 56.7 389.2 56 389.2 56.1C388.8 54.7 388 53.5 386.9 52.8C385.8 52.1 384.5 51.6 382.9 51.6C379.9 51.6 377.9 53 376.9 55.8Z" fill="#243947"/>
<path d="M429.4 30.3C429.6 30.1 429.8 30 430 30H438.4C438.6 30 438.8 30.1 439 30.3C439.2 30.5 439.3 30.7 439.3 30.9V79.6C439.3 79.8 439.2 80 439 80.2C438.8 80.4 438.6 80.5 438.4 80.5H430C429.8 80.5 429.6 80.4 429.4 80.2C429.2 80 429.1 79.8 429.1 79.6V77.2C429.1 77.1 429.1 77 429 76.9C428.9 76.9 428.8 76.9 428.7 77C426.7 79.6 423.9 81 420.4 81C417 81 414.1 80.1 411.7 78.2C409.3 76.3 407.5 73.8 406.5 70.5C405.7 68 405.3 65.1 405.3 61.8C405.3 58.4 405.7 55.4 406.6 52.9C407.7 49.8 409.4 47.4 411.8 45.6C414.2 43.8 417.1 42.9 420.6 42.9C424.1 42.9 426.7 44.1 428.7 46.5C428.8 46.6 428.9 46.7 429 46.6C429.1 46.6 429.1 46.5 429.1 46.3V30.9C429.2 30.7 429.3 30.5 429.4 30.3ZM429.1 61.9C429.1 58.7 428.6 56.2 427.5 54.3C426.4 52.4 424.8 51.5 422.7 51.5C420.4 51.5 418.7 52.4 417.6 54.3C416.4 56.2 415.8 58.7 415.8 61.9C415.8 64.8 416.3 67.2 417.3 69.1C418.5 71.2 420.3 72.2 422.6 72.2C424.8 72.2 426.4 71.2 427.6 69.1C428.6 67.4 429.1 65 429.1 61.9Z" fill="#243947"/>
<path d="M491.2 31.9C493.6 33.2 495.5 35 496.8 37.4C498.1 39.8 498.8 42.5 498.8 45.6C498.8 48.6 498.1 51.3 496.7 53.6C495.3 55.9 493.4 57.7 490.9 59C488.4 60.3 485.6 60.9 482.4 60.9H472.2C472 60.9 471.8 61 471.8 61.3V79.7C471.8 79.9 471.7 80.1 471.5 80.3C471.3 80.5 471.1 80.6 470.9 80.6H462.5C462.3 80.6 462.1 80.5 461.9 80.3C461.7 80.1 461.6 79.9 461.6 79.7V30.8C461.6 30.6 461.7 30.4 461.9 30.2C462.1 30 462.3 29.9 462.5 29.9H482.8C486 30 488.8 30.6 491.2 31.9ZM486.6 50.8C487.9 49.5 488.6 47.9 488.6 45.8C488.6 43.7 487.9 42 486.6 40.7C485.3 39.4 483.5 38.8 481.3 38.8H472.2C472 38.8 471.8 38.9 471.8 39.2V52.4C471.8 52.6 471.9 52.8 472.2 52.8H481.3C483.5 52.7 485.3 52.1 486.6 50.8Z" fill="#243947"/>
<path d="M504.6 80.2C504.4 80 504.3 79.8 504.3 79.6V30.9C504.3 30.7 504.4 30.5 504.6 30.3C504.8 30.1 505 30 505.2 30H513.6C513.8 30 514 30.1 514.2 30.3C514.4 30.5 514.5 30.7 514.5 30.9V79.6C514.5 79.8 514.4 80 514.2 80.2C514 80.4 513.8 80.5 513.6 80.5H505.2C505 80.4 504.8 80.4 504.6 80.2Z" fill="#243947"/>
<path d="M545 44.5C547.4 45.6 549.4 47.1 550.7 48.9C552 50.7 552.8 52.9 552.8 55.2V79.6C552.8 79.8 552.7 80 552.5 80.2C552.3 80.4 552.1 80.5 551.9 80.5H543.5C543.3 80.5 543.1 80.4 542.9 80.2C542.7 80 542.6 79.8 542.6 79.6V77.2C542.6 77.1 542.6 77 542.5 76.9C542.4 76.9 542.3 76.9 542.2 77C540.2 79.6 536.9 81 532.5 81C528.8 81 525.7 80.1 523.4 78.3C521.1 76.5 519.9 73.8 519.9 70.2C519.9 66.5 521.2 63.6 523.8 61.6C526.4 59.6 530.1 58.5 534.9 58.5H542.2C542.4 58.5 542.6 58.4 542.6 58.1V56.5C542.6 54.9 542.1 53.7 541.2 52.8C540.2 51.9 538.8 51.5 536.9 51.5C535.4 51.5 534.2 51.8 533.2 52.3C532.2 52.8 531.6 53.6 531.3 54.5C531.2 55 530.8 55.3 530.4 55.2L521.7 54C521.1 53.9 520.9 53.7 520.9 53.4C521.1 51.4 521.9 49.6 523.3 47.9C524.7 46.3 526.6 45 528.9 44.1C531.2 43.2 533.8 42.7 536.7 42.7C539.8 42.9 542.6 43.4 545 44.5ZM540.5 71.8C541.9 70.7 542.7 69.3 542.7 67.6V65C542.7 64.8 542.6 64.6 542.3 64.6H537.1C534.9 64.6 533.2 65 532 65.8C530.8 66.6 530.2 67.8 530.2 69.3C530.2 70.6 530.7 71.6 531.6 72.4C532.5 73.1 533.7 73.5 535.3 73.5C537.3 73.5 539 72.9 540.5 71.8Z" fill="#243947"/>
<path d="M588.5 46.4C590.9 48.8 592 51.9 592 56V79.6C592 79.8 591.9 80 591.7 80.2C591.5 80.4 591.3 80.5 591.1 80.5H582.7C582.5 80.5 582.3 80.4 582.1 80.2C581.9 80 581.8 79.8 581.8 79.6V58C581.8 56.1 581.3 54.5 580.2 53.3C579.1 52.1 577.7 51.5 575.9 51.5C574.1 51.5 572.7 52.1 571.6 53.3C570.5 54.5 570 56.1 570 58V79.5C570 79.7 569.9 79.9 569.7 80.1C569.5 80.3 569.3 80.4 569.1 80.4H560.7C560.5 80.4 560.3 80.3 560.1 80.1C559.9 79.9 559.8 79.7 559.8 79.5V44.3C559.8 44.1 559.9 43.9 560.1 43.7C560.3 43.5 560.5 43.4 560.7 43.4H569.1C569.3 43.4 569.5 43.5 569.7 43.7C569.9 43.9 570 44.1 570 44.3V46.8C570 46.9 570 47 570.1 47.1C570.2 47.1 570.3 47.1 570.3 47C572.3 44.2 575.2 42.8 579.1 42.8C583.1 42.9 586.2 44 588.5 46.4Z" fill="#243947"/>
<path d="M632.1 64.2C632.1 64.8 631.7 65.1 631.2 65.1H609C608.7 65.1 608.6 65.2 608.7 65.5C608.8 66.5 609.1 67.4 609.5 68.4C610.7 71.1 613.3 72.4 617.1 72.4C620.2 72.4 622.6 71.1 624.4 68.7C624.6 68.4 624.8 68.3 625 68.3C625.1 68.3 625.3 68.4 625.5 68.6L630.7 73.7C630.9 73.9 631.1 74.2 631.1 74.3C631.1 74.4 631 74.6 630.8 74.9C629.2 76.9 627.2 78.4 624.7 79.5C622.2 80.6 619.5 81.1 616.5 81.1C612.4 81.1 608.9 80.2 606 78.3C603.1 76.4 601.1 73.8 599.8 70.5C598.8 68.1 598.3 65 598.3 61.1C598.3 58.5 598.7 56.1 599.4 54.1C600.5 50.7 602.4 48 605.2 46C608 44 611.2 43 615 43C619.8 43 623.7 44.4 626.6 47.2C629.5 50 631.3 53.7 631.9 58.4C632.1 59.9 632.2 62 632.1 64.2ZM609.1 55.8C608.9 56.4 608.7 57.2 608.6 58.1C608.6 58.3 608.7 58.5 609 58.5H621.5C621.8 58.5 621.9 58.4 621.8 58.1C621.6 56.7 621.4 56 621.4 56.1C621 54.7 620.2 53.5 619.1 52.8C618 52.1 616.7 51.6 615.1 51.6C612.1 51.6 610.1 53 609.1 55.8Z" fill="#243947"/>
<path d="M658.5 51.3C658.3 51.5 658.1 51.6 657.9 51.6H651C650.8 51.6 650.6 51.7 650.6 52V67.3C650.6 68.9 650.9 70.1 651.6 70.8C652.2 71.6 653.3 72 654.7 72H657.1C657.3 72 657.5 72.1 657.7 72.3C657.9 72.5 658 72.7 658 72.9V79.7C658 80.2 657.7 80.5 657.1 80.6C655.1 80.7 653.6 80.7 652.8 80.7C648.8 80.7 645.8 80 643.9 78.7C641.9 77.4 640.9 74.9 640.9 71.2V51.9C640.9 51.7 640.8 51.5 640.5 51.5H636.4C636.2 51.5 636 51.4 635.8 51.2C635.6 51 635.5 50.8 635.5 50.6V44.2C635.5 44 635.6 43.8 635.8 43.6C636 43.4 636.2 43.3 636.4 43.3H640.5C640.7 43.3 640.9 43.2 640.9 42.9V34.3C640.9 34.1 641 33.9 641.2 33.7C641.4 33.5 641.6 33.4 641.8 33.4H649.9C650.1 33.4 650.3 33.5 650.5 33.7C650.7 33.9 650.8 34.1 650.8 34.3V42.9C650.8 43.1 650.9 43.3 651.2 43.3H658.1C658.3 43.3 658.5 43.4 658.7 43.6C658.9 43.8 659 44 659 44.2V50.6C658.8 50.9 658.7 51.1 658.5 51.3Z" fill="#243947"/>
<path d="M84.6 13.4C76.7 5.5 66.3 1.5 55.9001 1.5C45.5001 1.5 35.1 5.5 27.1 13.4C11.2 29.3 11.2 55 27.1 70.9C35 78.8 45.4001 82.8 55.9001 82.8C66.4001 82.8 76.7 78.8 84.7 70.9C100.5 55 100.5 29.3 84.6 13.4ZM36.3 22.6C41.5 17.4 48.5 14.5 55.9001 14.5C61.1001 14.5 66.0001 15.9 70.3001 18.6L32.3 56.6C25.8 45.9 27.1 31.8 36.3 22.6ZM75.5 61.7C70.3 66.9 63.3001 69.8 55.9001 69.8C50.7001 69.8 45.8 68.4 41.5 65.7L79.6 27.6C86 38.4 84.7001 52.5 75.5 61.7Z" fill="#28A199"/>
<path d="M97.4 76.7L93.9 73.2C93.1 72.4 91.7 72.4 90.9 73.2L88.9 75.2C80.1 84 68.4 88.9 55.9 88.9C37.4 88.9 20.8 78.1 12.7 60.6C12.7 60.5 12.6 60.5 12.6 60.4C5.60003 42 9.50002 22.4 22.8 9.1L24.8 7.1C25.6 6.3 25.6 4.9 24.8 4.1L21.3 0.6C20.5 -0.2 19.1 -0.2 18.3 0.6L16.3 2.6C0.400024 18.6 -4.29998 42.1 4.10002 64L4.20002 64.3C13 83.1 30 95.5 49.5 97.7V107.5H38.8C37.7 107.5 36.9 108.4 36.9 109.6V115.2C36.9 116.4 37.8 117.3 38.8 117.3H73C74.1 117.3 74.9 116.4 74.9 115.2V109.6C74.9 108.4 74 107.5 73 107.5H62.3V97.7C74.8 96.3 86.4 90.7 95.5 81.7L97.5 79.7C98.2 78.9 98.2 77.5 97.4 76.7Z" fill="#28A199"/>
</g>
<defs>
<clipPath id="clip0">
<rect width="658.8" height="117.4" fill="white"/>
</clipPath>
</defs>
</svg>

